<?xml version="1.0" encoding="UTF-8"?>
<svg id="a" xmlns="http://www.w3.org/2000/svg" xmlns:xlink="http://www.w3.org/1999/xlink" version="1.1" viewBox="0 0 537.5 183.6">
  <!-- Generator: Adobe Illustrator 29.6.0, SVG Export Plug-In . SVG Version: 2.1.1 Build 207)  -->
  <defs>
    <style>
      .st0 {
        fill: none;
      }

      .st1 {
        fill: #00a6e8;
      }

      .st2 {
        fill: #1eb53a;
      }

      .st3 {
        fill: #193154;
      }

      .st4 {
        fill: #fcd116;
      }

      .st5 {
        fill: #00a3dd;
      }

      .st6 {
        clip-path: url(#clippath);
      }
    </style>
    <clipPath id="clippath">
      <path class="st0" d="M243.2,72.1v60.5h-53.3c-12.4,0-22.4-10.3-21.9-22.8.4-11.4,9.7-20.6,21.1-21,12.5-.5,22.8,9.5,22.8,21.9h21.9c0-8-2.1-15.5-5.9-21.9-3.9-6.7-9.4-12.2-16.1-16.1-6.4-3.7-13.9-5.9-21.9-5.9s-15.5,2.1-21.9,5.9c-6.7,3.9-12.2,9.4-16,16.1-3.7,6.4-5.9,13.9-5.9,21.9s2.1,15.5,5.9,21.9c3.8,6.7,9.4,12.2,16,16.1,6.5,3.7,13.9,5.9,21.9,5.9v21.9c-7.7,0-15.1-1.3-21.9-3.7-8.2-2.9-15.6-7.3-21.9-13-1.8-1.6-3.6-3.4-5.2-5.2-5.6-6.3-10.1-13.8-13-21.9-1.2-3.5-2.2-7.2-2.8-10.9,0-.4-.1-.8-.2-1.1.8.8,1.6,1.7,2.5,2.5l.3-11.2,14.2,6.6c-.4-.3-10.4-6.9-16.6-20.2,0-.3.1-.7.2-1.1.6-2.9,1.4-5.8,2.4-8.5,2.9-8.2,7.4-15.6,13-21.9,1.6-1.8,3.4-3.5,5.2-5.2,6.3-5.7,13.8-10.1,21.9-13,6.9-2.4,14.2-3.8,21.9-3.8s15.1,1.3,21.9,3.8c8.2,2.9,15.6,7.3,21.9,13,1.7,1.5,3.2,3,4.8,4.7.1.1.3.3.4.5,1.5,1.7,2.9,3.5,4.3,5.3h0ZM251.9,88.7c-2.1-6-5.1-11.6-8.7-16.6v60.5h8.7c2.4-6.9,3.8-14.2,3.8-21.9s-1.3-15.1-3.8-21.9Z"/>
    </clipPath>
  </defs>
  <path class="st3" d="M91.8,75.7l19.9-20.7H20.9v27.2h37.3v94.1h34.3v-94.1h16.4c.8-.9,1.9-1.7,3.2-2.3.2-1.8.5-3.6.9-5.4l-21.2,1.1h0ZM117.2,52.7l-2.3,2.4-17.4,18,18.4-.9-.2.8c-.7,2.7-1.1,5.5-1.5,8.3v.4s-.4.1-.4.1c-.4.2-.7.3-1.1.5-1.3.7-2.2,1.5-2.8,2.4h15.7c-.1-.9-.7-1.7-1.7-2.4-.9-.6-2.1-1-3.4-1.2h-.5c0,0,0-.6,0-.6-.2-2.6-.2-5.3,0-8v-.6c0,0,9.6-.5,9.6-.5h1c0,0,1.2-16.6,1.2-16.6v-.2c.1,0,.1-1.9.1-1.9h-14.7ZM122.3,74.1c0,1.6,0,3.3,0,4.8,2.3.6,4,1.8,5,3.3h2.3v-8.5s-7.3.4-7.3.4Z"/>
  <path class="st3" d="M122.3,74.1c0,1.6,0,3.3,0,4.8,2.3.6,4,1.8,5,3.3h2.3v-8.5s-7.3.4-7.3.4ZM120.1,71.9l9.5-.5v-16.3h-14.6l-17.4,18,18.4-.9-.2.8c-.7,2.7-1.1,5.5-1.5,8.3v.4s-.4.1-.4.1c-.4.2-.7.3-1.1.5h11.2c-.9-.6-2.1-1-3.4-1.2h-.5c0,0,0-.6,0-.6-.2-2.6-.2-5.3,0-8v-.6c0,0,0,0,0,0ZM91.8,75.7l19.9-20.7H20.9v27.2h37.3v94.1h34.3v-94.1h16.4c.8-.9,1.9-1.7,3.2-2.3.2-1.8.5-3.6.9-5.4l-21.2,1.1h0Z"/>
  <path class="st3" d="M131.9,79.6v5.1h-2.5c.7-1.7,1.6-3.4,2.5-5.1Z"/>
  <path class="st1" d="M195.4,32.1l6.4,6.8c-9.8-1.9-23-.3-35.9,4.3-14,5.1-25.9,13.2-31.8,21.5l.6-8.8c.8-1,5.5-6.8,14.5-12.4,9.1-5.6,24.4-12.2,46.1-11.4h0Z"/>
  <path class="st1" d="M231.3,17.4l-22.5,23.7c-.4-.2-.8-.4-1.2-.5l-10.8-11.5h-1c-9.9-.4-19.4.6-28.1,3.1-7,1.9-13.6,4.8-19.6,8.5-10.6,6.5-15.6,13.4-15.8,13.6l-.3.4v.2c-.1,0-1.3,16.5-1.3,16.5h-1c0,0-9.5.5-9.5.5v.6c-.2,2.7-.2,5.4,0,8v.5s.6,0,.6,0c1.4.2,2.6.7,3.4,1.2.9.6,1.5,1.4,1.7,2.4,0,0,0,0,0,0,.2,1.7-1.2,3.6-3.7,4.7l-.5.2v.5c1,3.2,2.1,6.3,3.6,9.3,2.1,4.4,4.9,8.5,8.1,12.2,1.5,1.6,2.9,3,4.1,4.1l-10.2-4.8-.3,10.7c-.7-.7-1.4-1.4-2-2.2-6.7-7.7-10.3-17.3-10.8-28.6v-.5s-.5-.1-.5-.1c-2.3-.6-3.8-1.9-4-3.4,0-.7.1-1.4.6-2.2.6-.9,1.5-1.7,2.8-2.4.3-.2.7-.3,1.1-.5h.4c0-.1,0-.5,0-.5.3-2.8.8-5.6,1.5-8.3l.2-.8-18.4.9,17.4-18,2.3-2.4,35.5-36.8,78.6,1.5h0Z"/>
  <path class="st1" d="M195.4,32.1c-21.7-.7-37.1,5.8-46.1,11.4-9,5.6-13.8,11.5-14.5,12.4l-.6,8.8c5.9-8.3,17.7-16.5,31.8-21.5,12.9-4.7,26.1-6.2,35.9-4.3l-6.4-6.8h0ZM152.7,15.9l-35.5,36.8-2.3,2.4-17.4,18,18.4-.9-.2.8c-.7,2.7-1.1,5.5-1.5,8.3v.4s-.4.1-.4.1c-.4.2-.7.3-1.1.5-1.3.7-2.2,1.5-2.8,2.4-.5.7-.7,1.4-.6,2.2.2,1.5,1.7,2.8,4,3.4h.4c0,.1,0,.6,0,.6.5,11.3,4.1,20.9,10.8,28.6.7.8,1.3,1.5,2,2.2l.3-10.7,10.3,4.8c-1.2-1.1-2.6-2.5-4.1-4.1-3.3-3.7-6-7.8-8.1-12.2-1.4-3-2.6-6.1-3.4-9.3v-.5c-.1,0,.3-.2.3-.2,2.5-1.2,3.9-3,3.7-4.7,0,0,0,0,0,0-.1-.9-.7-1.7-1.7-2.4-.9-.6-2.1-1-3.4-1.2h-.5c0,0,0-.6,0-.6-.2-2.6-.2-5.3,0-8v-.6c0,0,9.6-.5,9.6-.5h1c0,0,1.2-16.6,1.2-16.6v-.2c.1,0,.4-.4.4-.4.2-.3,5.3-7.2,15.8-13.6,6-3.7,12.6-6.5,19.6-8.5,8.7-2.4,18.2-3.5,28.1-3.1h1s10.8,11.6,10.8,11.6c.4.2.8.3,1.2.5l22.5-23.7-78.6-1.5h0Z"/>
  <path class="st1" d="M384,55h-28.3l-41.6,70-42.6-70h-28.3v9.6c5.8,6.7,10.2,14.3,13.2,22.6,2.7,7.5,4,15.4,4,23.5s-1.4,16-4,23.5l-1.1,3.1h-12.1v39.1h31.7v-62.6l31,50.6h15.3l31.2-52.4.3,64.3h31.6l-.3-121.4h0Z"/>
  <g class="st6">
    <g>
      <path class="st2" d="M69,153V24.5h192.6L69,153Z"/>
      <path class="st5" d="M313.3,59v128.4H120.7L313.3,59Z"/>
      <polygon class="st4" points="120.7 187.4 313.3 59 313.3 24.5 261.6 24.5 69 153 69 187.4 120.7 187.4"/>
      <polygon points="104.4 187.4 313.3 48.1 313.3 24.5 278 24.5 69 163.8 69 187.4 104.4 187.4"/>
    </g>
  </g>
  <path class="st1" d="M427,56.1v-1h-34.3v121.4h34.3v-.9c-7.1-2.3-13.1-5.2-17.9-8.6l-3.2-2.2,15.1-33.9,4.6,3.1c.5.3.9.6,1.4.9v-13.4c-3.7-2.3-7.1-5.1-10.1-8.5-5.1-5.8-7.8-13.6-7.8-23.2s2.3-15.9,6.9-22.7c2.8-4.1,6.5-7.8,11-10.8h0ZM423,137.8l-11.3,25.3c4.2,2.9,9.2,5.4,15.2,7.5v-30.4c-1.4-.8-2.7-1.6-4-2.4h0ZM419.9,69.5c-4,6-6.1,12.6-6.1,20s2.2,15.2,6.6,20.1c2,2.3,4.2,4.3,6.6,6v-53.7c-2.8,2.3-5.2,4.8-7.1,7.6Z"/>
  <path class="st1" d="M510,117.2c-4.5-4.9-9.7-8.5-15.8-10.8s-13.7-4.4-23-6.3c-8.2-1.7-14.2-3.4-17.9-5s-5.5-4-5.5-7.3,1.6-5.9,4.7-7.9c3.1-2,8.1-3,14.9-3,10.9,0,22.1,3.1,33.6,9.3l10.6-25.5c-5.9-3.5-12.7-6.1-20.5-7.9-7.8-1.8-15.6-2.7-23.6-2.7-11.7,0-21.5,1.7-29.6,5.2-2.3,1-4.4,2-6.3,3.2-1.7,1-3.3,2.1-4.7,3.3-2.8,2.3-5.2,4.8-7.1,7.6-4,6-6.1,12.6-6.1,20s2.2,15.2,6.6,20.1c2,2.3,4.2,4.3,6.6,6,1.5,1.1,3.1,2.1,4.7,2.9,1.5.7,3,1.4,4.5,2,6.1,2.3,13.8,4.4,22.9,6.3,8.3,1.8,14.4,3.6,18.1,5.3s5.6,4.2,5.6,7.7c0,6.6-6.6,9.9-19.8,9.9s-14-1.1-21.2-3.3c-3.6-1.1-7-2.4-10.2-3.9-1.6-.8-3.2-1.6-4.7-2.4-1.4-.8-2.7-1.6-4-2.4l-11.3,25.3c4.2,2.9,9.2,5.4,15.2,7.5,1.5.5,3.1,1,4.7,1.5.9.2,1.7.5,2.6.7,9.2,2.4,18.8,3.6,28.6,3.6s21.4-1.8,29.5-5.3c8.1-3.5,14.2-8.2,18.2-14.1,4-5.9,6.1-12.5,6.1-19.8s-2.2-15.1-6.7-20h0Z"/>
  <circle class="st3" cx="409.8" cy="23.1" r="15.9"/>
</svg>