<svg xmlns="http://www.w3.org/2000/svg" viewBox="0 0 183 43"><defs><style>.cls-1{fill:#011e41;}</style></defs><path class="cls-1" d="M34.16406,23.536q-.0954.61219-.24609,1.20482A34.94773,34.94773,0,0,0,41.94082,17.581a21.08353,21.08353,0,0,0-.74416-2.86529A27.61139,27.61139,0,0,1,34.16406,23.536Z"/><path class="cls-1" d="M34.31805,21.17324A33.53119,33.53119,0,0,0,40.14656,12.162a21.189,21.189,0,0,0-1.52938-2.6262,27.66578,27.66578,0,0,1-4.3927,10.34766Q34.30191,20.51953,34.31805,21.17324Z"/><path class="cls-1" d="M42.27693,20.49206c-1.76964,2.502-5.49979,5.02669-9.32986,6.86506q-.27069.54342-.58915,1.05733a35.83413,35.83413,0,0,0,9.2419-4.5262,17.52116,17.52116,0,0,1-1.18011,3.88612,34.80846,34.80846,0,0,1-9.85525,2.92954,13.25138,13.25138,0,0,1-.997.9193,30.90432,30.90432,0,0,0,9.62533-1.56767A16.18557,16.18557,0,0,1,36.2209,33.475a32.743,32.743,0,0,1-8.76811-.41464q-.55895.30517-1.1495.55677a24.89529,24.89529,0,0,0,7.32031,1.72548,18.7297,18.7297,0,0,1-3.15254,1.47893,37.98744,37.98744,0,0,1-6.55548-2.4491A13.15033,13.15033,0,0,1,22.439,34.601a32.946,32.946,0,0,0,5.40906,2.96,17.2195,17.2195,0,0,1-3.23638.35916q-.32674.004-.65172-.00489a36.11949,36.11949,0,0,1-4.002-3.30505,13.14412,13.14412,0,0,1-1.79027-.28585,34.49167,34.49167,0,0,0,3.269,3.33109,16.66466,16.66466,0,0,1-3.63075-1.09347,29.87177,29.87177,0,0,1-1.89255-2.98081,13.12815,13.12815,0,0,1-1.64005-.85342,29.36485,29.36485,0,0,0,1.39325,2.72218,16.30932,16.30932,0,0,1-3.06558-2.441,19.489,19.489,0,0,1-1.18675-2.64556,13.1729,13.1729,0,1,1,22.30454-12.823A31.04454,31.04454,0,0,0,36.3679,6.77078a21.28928,21.28928,0,0,0-2.18676-1.97646,24.9857,24.9857,0,0,1-.69125,10.55453A16.47088,16.47088,0,0,0,32.05355,12.956,32.71688,32.71688,0,0,0,30.98216,2.719a21.00747,21.00747,0,0,0-2.69954-1.189,25.855,25.855,0,0,1,2.74809,10.13756A18.69416,18.69416,0,0,0,29.00582,9.6774,37.43569,37.43569,0,0,0,24.76252.60248a21.17961,21.17961,0,0,0-2.7721-.29182,29.434,29.434,0,0,1,5.25764,8.04517,19.73509,19.73509,0,0,0-2.97478-1.63366,35.39393,35.39393,0,0,0-5.709-6.2708,21.01871,21.01871,0,0,0-2.68855.50726A27.4701,27.4701,0,0,1,21.74652,5.808a18.76631,18.76631,0,0,0-3.40246-.64023A36.50717,36.50717,0,0,0,13.0364,1.9104a21.05449,21.05449,0,0,0-2.5889,1.29443,13.48783,13.48783,0,0,1,5.19671,1.91262,17.85279,17.85279,0,0,0-3.0615.43911A29.954,29.954,0,0,0,8.46717,4.527,21.28157,21.28157,0,0,0,6.18364,6.514,13.80912,13.80912,0,0,1,9.59871,6.4516,23.57506,23.57506,0,0,0,3.58124,9.68635,21.16827,21.16827,0,1,0,42.30041,21.49172Q42.30041,20.989,42.27693,20.49206Z"/><polygon class="cls-1" points="93.923 6.333 90.877 6.333 85.968 13.208 81.058 6.333 78.013 6.333 84.065 14.502 77.953 22.753 80.998 22.753 85.968 15.74 90.937 22.753 93.983 22.753 87.871 14.502 93.923 6.333"/><path class="cls-1" d="M155.71877,16.93425a5.18739,5.18739,0,0,0,3.31034-5.04575c0-3.55779-2.51753-5.55541-6.65039-5.55541h-7.18235V22.75322h2.7092V17.55357h4.92218a18.22787,18.22787,0,0,1,3.79533,5.19965h3.31038A23.01563,23.01563,0,0,0,155.71877,16.93425Zm-7.8132-8.19294h4.39122c2.40846,0,3.94085,1.09481,3.94085,3.25655,0,2.18954-1.505,3.20193-3.7768,3.20193h-4.55527Z"/><path class="cls-1" d="M174.26981,6.33309h-6.13053V22.75322h6.13053c5.30933,0,8.73019-3.31133,8.73019-8.21C183,9.6443,179.57914,6.33309,174.26981,6.33309Zm-.19167,14.01213h-3.229V8.74128h3.229c3.50329,0,6.1578,2.07982,6.1578,5.80189C180.23594,18.2651,177.58143,20.34522,174.07814,20.34522Z"/><path class="cls-1" d="M62.74393,5.938a8.744,8.744,0,0,0-8.76832,8.58959,8.77009,8.77009,0,0,0,17.53646,0A8.74387,8.74387,0,0,0,62.74393,5.938Zm0,14.70121a6.1956,6.1956,0,0,1-6.201-6.11162,6.20164,6.20164,0,0,1,12.402,0A6.1956,6.1956,0,0,1,62.74393,20.63916Z"/><path class="cls-1" d="M128.45281,5.938a8.744,8.744,0,0,0-8.7683,8.58959,8.77008,8.77008,0,0,0,17.53644,0A8.74387,8.74387,0,0,0,128.45281,5.938Zm0,14.70121a6.19559,6.19559,0,0,1-6.201-6.11162,6.20163,6.20163,0,0,1,12.40195,0A6.1956,6.1956,0,0,1,128.45281,20.63916Z"/><path class="cls-1" d="M101.27044,22.75322H103.98V16.84049h7.907a9.73345,9.73345,0,0,0,1.15469-2.35423H103.98V8.7412h10.03247V6.33309h-12.742Z"/><path class="cls-1" d="M155.70285,32.01976c0-1.50354-1.0764-2.32579-2.83119-2.32579H149.818v6.9407h1.15836v-2.1845h2.061a7.7084,7.7084,0,0,1,1.59286,2.1845h1.41849a9.73335,9.73335,0,0,0-1.76635-2.44373A2.189,2.189,0,0,0,155.70285,32.01976Zm-2.878,1.42385H150.9764V30.71178h1.84845c1.02958,0,1.69631.44044,1.69631,1.35432C154.52116,33.04951,153.86624,33.44361,152.82485,33.44361Z"/><path class="cls-1" d="M60.58949,33.69664a1.89818,1.89818,0,1,1-3.79078,0V29.694H55.64049v4.00267a2.90571,2.90571,0,0,0,3.06529,3.10011,2.87546,2.87546,0,0,0,3.04193-3.10011V29.694H60.58949Z"/><path class="cls-1" d="M168.89221,31.42985c0-.48964.44256-.83591,1.33187-.83591a3.948,3.948,0,0,1,1.98876.6225l.5978-.94226a4.84793,4.84793,0,0,0-2.56437-.73658c-1.50774,0-2.59655.68793-2.59655,1.95659,0,2.60375,4.13073,1.69973,4.13073,3.263,0,.5357-.56906.97726-1.35992.97726a3.46063,3.46063,0,0,1-2.32134-.9211l-.64126.9039a4.55284,4.55284,0,0,0,2.9432,1.07368c1.48556,0,2.6565-.8532,2.6565-2.09316C173.06738,32.22022,168.89221,32.96991,168.89221,31.42985Z"/><path class="cls-1" d="M107.84781,31.42985c0-.48964.44257-.83591,1.33185-.83591a3.948,3.948,0,0,1,1.98878.6225l.5978-.94226a4.84793,4.84793,0,0,0-2.56437-.73658c-1.50772,0-2.59655.68793-2.59655,1.95659,0,2.60375,4.13073,1.69973,4.13073,3.263,0,.5357-.56906.97726-1.35992.97726a3.46061,3.46061,0,0,1-2.32134-.9211l-.64126.9039a4.5529,4.5529,0,0,0,2.94321,1.07368c1.48555,0,2.65649-.8532,2.65649-2.09316C112.023,32.22022,107.84781,32.96991,107.84781,31.42985Z"/><path class="cls-1" d="M177.16968,31.42985c0-.48964.44256-.83591,1.33187-.83591a3.948,3.948,0,0,1,1.98876.6225l.5978-.94226a4.84793,4.84793,0,0,0-2.56437-.73658c-1.50774,0-2.59655.68793-2.59655,1.95659,0,2.60375,4.13073,1.69973,4.13073,3.263,0,.5357-.56906.97726-1.35992.97726a3.46063,3.46063,0,0,1-2.32134-.9211l-.64126.9039a4.55284,4.55284,0,0,0,2.9432,1.07368c1.48556,0,2.6565-.8532,2.6565-2.09316C181.34485,32.22022,177.16968,32.96991,177.16968,31.42985Z"/><polygon class="cls-1" points="70.045 34.677 65.86 29.694 64.886 29.694 64.886 36.635 66.044 36.635 66.044 31.582 70.229 36.635 71.203 36.635 71.203 29.694 70.045 29.694 70.045 34.677"/><rect class="cls-1" x="74.82484" y="29.69397" width="1.15821" height="6.9407"/><rect class="cls-1" x="115.40824" y="29.69397" width="1.15821" height="6.9407"/><polygon class="cls-1" points="119.541 30.712 121.904 30.712 121.904 36.635 123.062 36.635 123.062 30.712 125.426 30.712 125.426 29.694 119.541 29.694 119.541 30.712"/><path class="cls-1" d="M103.4605,32.01976c0-1.50354-1.07643-2.32579-2.8312-2.32579H97.57568v6.9407H98.734v-2.1845h2.06109a7.7096,7.7096,0,0,1,1.59276,2.1845h1.41847a9.73345,9.73345,0,0,0-1.76629-2.44376A2.189,2.189,0,0,0,103.4605,32.01976Zm-2.878,1.42385H98.734V30.71178h1.84843c1.0296,0,1.69634.44044,1.69634,1.35432C102.27881,33.04951,101.62388,33.44361,100.58247,33.44361Z"/><path class="cls-1" d="M131.06013,32.92246a30.15863,30.15863,0,0,1-1.901-3.22849h-1.34544a42.81644,42.81644,0,0,0,2.6672,4.4034v2.5373h1.15849v-2.5373a42.79508,42.79508,0,0,0,2.6672-4.4034h-1.34544A30.15684,30.15684,0,0,1,131.06013,32.92246Z"/><path class="cls-1" d="M82.48,35.33515A33.47051,33.47051,0,0,1,80.24808,29.694H78.9883a36.88427,36.88427,0,0,0,2.85687,6.9407h1.201A36.88435,36.88435,0,0,0,85.903,29.694H84.712A33.46633,33.46633,0,0,1,82.48,35.33515Z"/><path class="cls-1" d="M88.90827,36.63467h5.32316V35.6171h-4.165V33.64047H93.35a4.12435,4.12435,0,0,0,.47309-.97205H90.06645V30.7118h4.165V29.694H88.90827Z"/><path class="cls-1" d="M159.18484,36.63467H164.508V35.6171h-4.165V33.64047h3.28356a4.12474,4.12474,0,0,0,.47309-.97205H160.343V30.7118h4.165V29.694h-5.32316Z"/><path class="cls-1" d="M143.78193,29.694h-3.05356v6.9407h1.15836v-5.9229h1.84843c1.02954,0,1.69628.46278,1.69628,1.37667,0,.9834-.6549,1.39983-1.69628,1.39983H142.6868l-.44627,1.00658h1.47107c1.73132,0,2.90153-.856,2.90153-2.45275C146.61313,30.53855,145.5367,29.694,143.78193,29.694Z"/></svg>