<?xml version="1.0" encoding="utf-8"?>
<!-- Generator: Adobe Illustrator 28.1.0, SVG Export Plug-In . SVG Version: 6.00 Build 0)  -->
<svg version="1.1" id="a" xmlns="http://www.w3.org/2000/svg" xmlns:xlink="http://www.w3.org/1999/xlink" x="0px" y="0px"
	 viewBox="0 0 104.6 30.6" style="enable-background:new 0 0 104.6 30.6;" xml:space="preserve">
<style type="text/css">
	.st0{fill:#007FA3;}
	.st1{fill:#3D3934;}
</style>
<path class="st0" d="M15,0C8.8-0.2,3.5,3.7,1.2,9.3c-3,7.2-0.6,18.6,7.9,20.9c6.2,1.7,12.6-1.8,15.8-7C28,18.1,29.4,11.1,26,5.8
	C23.7,2.2,19.3,0.2,15,0z M12.7,26.2c-0.8,0-1.4-0.6-1.4-1.4s0.6-1.4,1.4-1.4s1.4,0.6,1.4,1.4S13.5,26.2,12.7,26.2z M20.5,17.8
	c-1.8,1.4-3.8,1.7-6.1,1.8c-0.1,0-0.1,0-0.1,0.1c0,0.7,0,1.2-0.1,1.5c-0.2,0.8-1.3,1.2-1.9,1.2c-1,0-1.1-0.8-1.1-1.6
	c-0.1-3-0.1-5.9-0.2-8.8c0-1.3,2.3-1.3,3-1.1c0.6,0.1,0.7,1.2,0.6,1.8c-0.1,1.6-0.2,3.3-0.2,4.9c0,0.1,0,0.1,0.1,0.1
	c3.1-0.3,6.4-2.3,5.9-5.9c-0.3-1.8-2-3.2-3.8-3.7c-1.7-0.4-4.1-0.3-5.7,0.2c-1.6,0.5-3,1.5-4.2,2.6c-0.9,0.8-2,0.5-1.6-0.9
	C5.2,9.7,5.5,9.3,6,8.7c3.1-3,7.5-3.9,11.6-2.9C18.9,6.1,20,6.7,21,7.5C24.3,10.3,23.9,15.3,20.5,17.8L20.5,17.8z"/>
<g>
	<path class="st1" d="M44.9,11.4c-0.6-2.7-3.8-3.2-6-3.2c-1.9,0-3.7,0-5.5,0c-0.1,0-0.2,0.1-0.2,0.2v0.1c0,0.1,0.1,0.2,0.2,0.2
		c0.7,0,1.8,0.3,1.8,1.2c0,3.5,0,6.9,0,10.4c0,1.2-0.9,1.5-1.9,1.5c-0.1,0-0.2,0.1-0.1,0.2V22c0,0.1,0.1,0.2,0.2,0.2h5.9
		c0.1,0,0.2-0.1,0.2-0.2v0c0-0.1,0-0.2-0.1-0.2c-1.1-0.1-2-0.3-2-1.6c0-1.2,0-2.3,0-3.5c0-0.1,0-0.1,0.1-0.1c2.4,0,6,0.2,7.2-2.6
		C45,13.3,45.1,12.2,44.9,11.4z M42.5,13c0,1.7-1.4,3-3.1,3h-2l0,0c0,0,0,0,0-0.1l0-7.1c0,0,0,0,0,0h2c1.7,0,3,1.4,3,3V13z"/>
</g>
<path class="st1" d="M78.7,21.9c-0.4,0.3-1,0.4-1.6,0.5c-0.9,0-1.9-0.2-3-0.7c0,0,0,0,0,0l-0.7,0.7c-0.1,0.1-0.3,0-0.3-0.1v-3.3
	c0-0.1,0-0.1,0.1-0.1c0.2,0,0.3,0,0.4,0.2c0.6,1.5,1.7,2.9,3.4,2.8c0.6,0,1.1-0.2,1.5-0.7c1-1.2-0.1-2.3-1.2-2.7
	c-1.4-0.5-3.6-0.8-4.1-2.5c-0.1-0.5-0.1-1.1,0-1.6c0.7-2.3,3.6-2.7,5.4-1.7c0.1,0,0.1,0,0.2,0l0.3-0.3c0.3-0.3,0.4-0.2,0.4,0.2v2.7
	c0,0.1,0,0.2-0.1,0.2c-0.1,0.1-0.2,0-0.3-0.1c-0.7-1.4-1.7-3-3.5-2.5c-0.4,0.1-0.7,0.3-0.9,0.6c-1,1.4,0.5,2.3,1.6,2.6
	c0.8,0.2,1.6,0.5,2.2,0.8C80.7,17.7,80.5,20.8,78.7,21.9L78.7,21.9z"/>
<g>
	<path class="st1" d="M53.5,19.6c-0.1-0.1-0.2,0-0.2,0.1c-0.6,1-1.4,1.5-2.4,1.7c-2.8,0.4-4-2.4-3.8-4.7c0-0.1,0-0.1,0.1-0.1l0,0
		h6.2c0.2,0,0.3-0.1,0.3-0.3c0.1-2.4-1.4-4.1-3.8-4.2c-4.5-0.2-6.5,5.8-3.7,8.8c2.1,2.3,6.1,1.9,7.5-0.9
		C53.7,19.8,53.7,19.7,53.5,19.6L53.5,19.6z M50.2,12.7c1.2,0.4,1.4,2.1,1.3,3.2c0,0.1,0,0.1-0.1,0.1h-4.2c0,0-0.1,0-0.1-0.1
		C47.2,14.2,48.2,12.1,50.2,12.7z"/>
</g>
<path class="st1" d="M72.2,12.9c1,1.8-1.9,2.8-2.2,0.9c-0.1-0.1-0.1-0.3,0-0.6c-0.7,0.1-2,1.3-1.9,2.2c0,1.9,0,3.8,0,5.7
	c0,0.9,0.7,0.8,1.3,0.8c0.1,0,0.1,0.1,0.1,0.2V22c0,0.1-0.1,0.2-0.2,0.2h-4.1c-0.1,0-0.2-0.1-0.2-0.2V22c0-0.1,0-0.2,0.1-0.2
	c0.5-0.1,1,0,1-0.7c0-2.4,0-4.9,0-7.3c0-0.7-0.3-1-1-1.1c-0.1,0-0.2-0.1-0.2-0.2v-0.1c0-0.1,0.1-0.2,0.2-0.2l2.7-0.1
	c0.2,0,0.3,0.1,0.3,0.3l0,1.3c0,0.1,0,0.1,0,0.1c0,0,0,0,0.1,0c0.1-0.1,0.1-0.1,0.2-0.1c0.3-0.6,0.8-1.1,1.4-1.4
	C70.5,11.9,71.8,12,72.2,12.9L72.2,12.9z"/>
<g>
	<path class="st1" d="M86.1,12.1c-2.7,0-4.9,2.3-5,5.1s2.2,5.2,4.9,5.2c2.7,0,4.9-2.3,5-5.1C91.1,14.4,88.9,12.1,86.1,12.1z
		 M88.6,19.5c-0.6,3-4.1,3.3-4.9,0.2c-0.4-1.7-0.7-6.6,1.7-7C89.3,11.9,89.1,17.2,88.6,19.5z"/>
</g>
<path class="st1" d="M102.1,22L102.1,22c0,0.2-0.1,0.3-0.2,0.3h-3.7c-0.1,0-0.1,0-0.2-0.1c0-0.1-0.1-0.1,0-0.2
	c0-0.1,0.1-0.1,0.2-0.1l0.4,0c0.1,0,0.1,0,0.2-0.1c0.2-0.1,0.2-0.4,0.3-0.6c0-1.9,0-3.9,0-5.8c0-1.2-0.5-2.2-1.9-2.1
	c-1,0.1-1.8,0.9-2.3,1.7c-0.2,0.2-0.2,0.5-0.2,0.9c0,1.9,0,3.7,0,5.5c0,0.3,0.2,0.6,0.6,0.6h0.4c0,0,0.1,0,0.1,0.1
	c0.1,0.1,0.1,0.2,0,0.3c0,0-0.1,0.1-0.1,0.1h-3.8c-0.1,0-0.2-0.1-0.2-0.2V22c0-0.1,0.1-0.2,0.2-0.2c0.6,0.1,0.9-0.1,0.9-0.6
	c0-2.5,0-5.1-0.1-7.6c0-0.8-0.6-0.7-1-0.9c-0.1,0-0.1-0.1-0.1-0.1c0-0.2,0-0.3,0.2-0.3c0.9,0,1.8,0,2.7-0.1c0.1,0,0.2,0.1,0.2,0.2
	l0,1.5l0,0c0,0,0.1,0,0.1,0c0.1,0,0.1,0,0.1-0.1c1-1.4,2.2-1.9,3.8-1.8c1.1,0.1,1.8,0.6,2.1,1.4c0.2,0.4,0.3,1.2,0.3,2.3
	c0,1.7,0,3.5,0,5.2c0,0.7,0.4,0.8,1,0.8C102.1,21.8,102.2,21.9,102.1,22L102.1,22z"/>
<g>
	<path class="st1" d="M63.8,21.6c-0.1,0-0.1-0.1-0.2,0l0,0c-0.6,0.1-1,0-1.1-0.7l0-5.1c0.1-1.6-0.2-3-2-3.5C59,11.8,57.5,12,56,12.9
		c-0.6,0.4-0.8,0.9-0.8,1.6c0.2,2,3.5,0.9,1.9-1.2c0-0.1,0-0.1,0-0.2c0.9-0.7,2.9-0.9,3.3,0.5c0.2,0.8,0.2,1.6,0.1,2.6
		c0,0.1,0,0.1-0.1,0.1c-1.7,0.4-5.3,1-5.6,3.2c-0.2,1.7,0.9,2.7,2.5,2.8c1.2,0,2.2-0.5,3.1-1.5c0.1,0,0.2,0.1,0.2,0.2
		c0.1,1.6,2.1,1.3,3,0.8C64,21.8,64,21.7,63.8,21.6z M60.7,19.9c0,0.1,0,0.1,0,0.2c-0.5,0.8-1.3,1.4-2.3,1.3v0
		c-1.1-0.1-1.5-1.2-1.3-2.1c0.4-1.5,2.2-2,3.5-2.3c0.1,0,0.1,0,0.1,0.1V19.9z"/>
</g>
</svg>
